<svg xmlns="http://www.w3.org/2000/svg" version="1.1" xmlns:xlink="http://www.w3.org/1999/xlink" width="816" height="616"><svg width="816" height="616" xmlns="http://www.w3.org/2000/svg" xmlns:xlink="http://www.w3.org/1999/xlink" xml:space="preserve" overflow="hidden"><g transform="translate(-232 -52)"><g><g><g><g><path d="M356.934 650.618 709.059 41.0566 1061.18 650.618Z" stroke="#000000" stroke-width="2.21928" stroke-linecap="butt" stroke-linejoin="miter" stroke-miterlimit="8" stroke-opacity="1" fill="#000000" fill-rule="evenodd" fill-opacity="1" transform="matrix(1.00096 0 0 1 -121.946 14.5325)"></path><path d="M505.625 447.184C505.625 334.831 596.706 243.751 709.059 243.751 821.414 243.751 912.493 334.831 912.493 447.184 912.493 559.537 821.414 650.618 709.059 650.618 596.706 650.618 505.625 559.537 505.625 447.184Z" stroke="#FFFFFF" stroke-width="2.21928" stroke-linecap="butt" stroke-linejoin="miter" stroke-miterlimit="8" stroke-opacity="1" fill="#FFFFFF" fill-rule="evenodd" fill-opacity="1" transform="matrix(1.00096 0 0 1 -121.946 14.5325)"></path><path d="M761.582 308.849C761.582 196.496 852.498 105.416 964.646 105.416 1076.79 105.416 1167.71 196.496 1167.71 308.849 1167.71 421.203 1076.79 512.283 964.646 512.283 852.498 512.283 761.582 421.203 761.582 308.849Z" stroke="#000000" stroke-width="2.21928" stroke-linecap="butt" stroke-linejoin="miter" stroke-miterlimit="8" stroke-opacity="1" fill="#000000" fill-rule="evenodd" fill-opacity="1" transform="matrix(1.00096 0 0 1 -121.946 14.5325)"></path></g></g></g></g></g></svg><style>@media (prefers-color-scheme: light) { :root { filter: none; } }
@media (prefers-color-scheme: dark) { :root { filter: none; } }
</style></svg>